<svg width="20" height="16" viewBox="0 0 20 16" fill="none" xmlns="http://www.w3.org/2000/svg">
<path d="M19.405 15.1226V15.162H19.4419C19.4489 15.1621 19.4557 15.1603 19.4617 15.1569C19.4641 15.1553 19.4661 15.153 19.4674 15.1503C19.4687 15.1477 19.4693 15.1448 19.4691 15.1419C19.4693 15.139 19.4687 15.1361 19.4674 15.1336C19.4661 15.131 19.4641 15.1288 19.4617 15.1272C19.4558 15.1236 19.4489 15.1219 19.4419 15.1222H19.405V15.1226ZM19.4423 15.0947C19.4581 15.0937 19.4738 15.0982 19.4867 15.1075C19.4918 15.1117 19.4959 15.117 19.4986 15.1231C19.5013 15.1291 19.5025 15.1357 19.5022 15.1424C19.5024 15.1481 19.5014 15.1537 19.4993 15.159C19.4971 15.1643 19.4939 15.1691 19.4897 15.173C19.4798 15.1816 19.4674 15.1867 19.4543 15.1877L19.5038 15.2438H19.4657L19.4202 15.1881H19.4054V15.2438H19.3735V15.0948H19.4428L19.4423 15.0947ZM19.4324 15.2953C19.4491 15.2954 19.4657 15.2921 19.481 15.2854C19.4958 15.2791 19.5092 15.27 19.5206 15.2587C19.532 15.2474 19.5411 15.234 19.5474 15.2193C19.5604 15.1881 19.5604 15.153 19.5474 15.1218C19.541 15.1071 19.5319 15.0937 19.5206 15.0824C19.5092 15.0711 19.4958 15.062 19.481 15.0557C19.4656 15.0494 19.4491 15.0462 19.4324 15.0464C19.4155 15.0462 19.3987 15.0494 19.3829 15.0557C19.3678 15.0619 19.3541 15.0709 19.3425 15.0824C19.3249 15.1002 19.3131 15.1228 19.3084 15.1474C19.3037 15.1719 19.3064 15.1973 19.316 15.2203C19.3221 15.2351 19.331 15.2485 19.3425 15.2597C19.3541 15.2711 19.3678 15.2802 19.3829 15.2864C19.3986 15.2931 19.4154 15.2964 19.4324 15.2963M19.4324 15.0105C19.4759 15.0105 19.5177 15.0275 19.5487 15.0578C19.5637 15.0724 19.5756 15.0898 19.5838 15.109C19.5922 15.1287 19.5966 15.1499 19.5966 15.1713C19.5966 15.1927 19.5922 15.2139 19.5838 15.2336C19.5754 15.2527 19.5635 15.27 19.5487 15.2847C19.5335 15.2992 19.5159 15.3109 19.4966 15.3192C19.4763 15.3278 19.4545 15.3322 19.4324 15.332C19.4101 15.3322 19.388 15.3278 19.3675 15.3192C19.348 15.3111 19.3301 15.2994 19.3149 15.2847C19.3001 15.2695 19.2884 15.2516 19.2804 15.2319C19.2719 15.2122 19.2676 15.191 19.2676 15.1696C19.2676 15.1482 19.2719 15.127 19.2804 15.1073C19.2886 15.0881 19.3005 15.0707 19.3154 15.0561C19.3304 15.0412 19.3483 15.0295 19.368 15.0217C19.3885 15.0131 19.4106 15.0087 19.4329 15.0089M4.27725 14.4348C4.27725 14.1506 4.46431 13.917 4.77005 13.917C5.06222 13.917 5.25938 14.1405 5.25938 14.4348C5.25938 14.7291 5.06222 14.9526 4.77005 14.9526C4.46431 14.9526 4.27725 14.7191 4.27725 14.4348ZM5.59244 14.4348V13.6259H5.23919V13.8229C5.12715 13.6773 4.95721 13.586 4.7261 13.586C4.27081 13.586 3.91351 13.9415 3.91351 14.4352C3.91351 14.9289 4.27062 15.2844 4.7261 15.2844C4.95711 15.2844 5.12715 15.193 5.23919 15.0475V15.2438H5.59204V14.4348H5.59244ZM17.5281 14.4348C17.5281 14.1506 17.7152 13.917 18.021 13.917C18.3135 13.917 18.5104 14.1405 18.5104 14.4348C18.5104 14.7291 18.3135 14.9526 18.021 14.9526C17.7153 14.9526 17.5281 14.7191 17.5281 14.4348ZM18.8437 14.4348V12.9766H18.4902V13.8229C18.3781 13.6773 18.2082 13.586 17.9771 13.586C17.5218 13.586 17.1645 13.9415 17.1645 14.4352C17.1645 14.9289 17.5216 15.2844 17.9771 15.2844C18.2082 15.2844 18.3781 15.193 18.4902 15.0475V15.2438H18.8437V14.4348ZM9.97667 13.9004C10.2043 13.9004 10.3505 14.0425 10.3878 14.2926H9.54494C9.58265 14.0591 9.72507 13.9004 9.97677 13.9004M9.9838 13.5851C9.50772 13.5851 9.17467 13.9299 9.17467 14.4343C9.17467 14.9486 9.52108 15.2836 10.0075 15.2836C10.2521 15.2836 10.4762 15.2228 10.6734 15.0569L10.5003 14.7963C10.3641 14.9047 10.1907 14.9655 10.0276 14.9655C9.8 14.9655 9.59274 14.8606 9.54177 14.5694H10.748C10.7515 14.5257 10.755 14.4815 10.755 14.4342C10.7515 13.93 10.4383 13.585 9.9836 13.585M14.2485 14.4342C14.2485 14.15 14.4355 13.9164 14.7413 13.9164C15.0334 13.9164 15.2306 14.1399 15.2306 14.4342C15.2306 14.7285 15.0334 14.952 14.7413 14.952C14.4355 14.952 14.2484 14.7185 14.2484 14.4342M15.5636 14.4342V13.6259H15.2105V13.8229C15.0981 13.6773 14.9285 13.586 14.6974 13.586C14.2421 13.586 13.8848 13.9415 13.8848 14.4352C13.8848 14.9289 14.2419 15.2844 14.6974 15.2844C14.9285 15.2844 15.0981 15.193 15.2105 15.0475V15.2438H15.5637V14.4348L15.5636 14.4342ZM12.2536 14.4342C12.2536 14.9248 12.5967 15.2835 13.1202 15.2835C13.3649 15.2835 13.5279 15.2293 13.7042 15.0906L13.5346 14.8064C13.4019 14.9013 13.2627 14.952 13.109 14.952C12.827 14.9486 12.6196 14.7456 12.6196 14.4342C12.6196 14.1229 12.827 13.92 13.109 13.9164C13.2623 13.9164 13.4015 13.9672 13.5346 14.0621L13.7042 13.7778C13.5276 13.6392 13.3646 13.585 13.1202 13.585C12.5967 13.585 12.2536 13.9435 12.2536 14.4342ZM16.8075 13.585C16.6037 13.585 16.471 13.6799 16.3792 13.822V13.6259H16.0291V15.243H16.3828V14.3365C16.3828 14.0689 16.4983 13.9202 16.7292 13.9202C16.8048 13.9191 16.8799 13.9329 16.9501 13.9609L17.059 13.6294C16.9808 13.5988 16.8788 13.5853 16.8073 13.5853M7.33887 13.7545C7.16892 13.6429 6.93475 13.5853 6.67642 13.5853C6.26488 13.5853 5.99992 13.7817 5.99992 14.103C5.99992 14.3666 6.19718 14.5293 6.56042 14.58L6.72729 14.6037C6.92099 14.6308 7.01244 14.6815 7.01244 14.7729C7.01244 14.8979 6.88377 14.9692 6.64217 14.9692C6.39751 14.9692 6.22093 14.8914 6.10187 14.8001L5.93588 15.0743C6.12958 15.2164 6.37425 15.2841 6.63921 15.2841C7.10835 15.2841 7.38024 15.0642 7.38024 14.7563C7.38024 14.4721 7.16625 14.3234 6.81271 14.2726L6.64623 14.2486C6.49332 14.2289 6.37078 14.1982 6.37078 14.0899C6.37078 13.9716 6.48629 13.9005 6.68008 13.9005C6.88744 13.9005 7.08816 13.9783 7.18654 14.0391L7.33946 13.7549L7.33887 13.7545ZM11.8968 13.5856C11.693 13.5856 11.5603 13.6805 11.4689 13.8225V13.6259H11.1189V15.243H11.4721V14.3365C11.4721 14.0689 11.5876 13.9202 11.8185 13.9202C11.8941 13.9191 11.9692 13.9329 12.0394 13.9609L12.1483 13.6294C12.0701 13.5988 11.9682 13.5853 11.8966 13.5853M8.88239 13.6259H8.30477V13.1353H7.94767V13.6259H7.61818V13.9473H7.94767V14.685C7.94767 15.0602 8.09395 15.2837 8.51183 15.2837C8.66514 15.2837 8.84171 15.2364 8.95376 15.1586L8.85171 14.8575C8.7463 14.9183 8.6308 14.9489 8.53895 14.9489C8.36237 14.9489 8.30477 14.8406 8.30477 14.6783V13.9476H8.88239V13.6259ZM3.60114 15.2434V14.2285C3.60114 13.8463 3.35648 13.5891 2.96206 13.5857C2.7547 13.5822 2.54082 13.6465 2.39107 13.8734C2.27902 13.6941 2.10245 13.5857 1.85422 13.5857C1.68072 13.5857 1.51117 13.6364 1.37844 13.8258V13.6259H1.0249V15.243H1.38122V14.3463C1.38122 14.0656 1.5376 13.9164 1.7791 13.9164C2.01367 13.9164 2.13234 14.0687 2.13234 14.3428V15.2428H2.48945V14.3461C2.48945 14.0654 2.65246 13.9162 2.88693 13.9162C3.12814 13.9162 3.24325 14.0685 3.24325 14.3426V15.2426L3.60114 15.2434Z" fill="#F0F0D6"/>
<path d="M12.5764 10.8799H7.22314V1.30273H12.5764L12.5764 10.8799Z" fill="#FF5F00"/>
<path d="M7.56175 6.09087C7.56175 4.14814 8.4755 2.41755 9.89837 1.30228C8.82133 0.456841 7.48919 -0.00201088 6.1176 6.62467e-06C2.73886 6.62467e-06 0 2.72694 0 6.09087C0 9.4548 2.73886 12.1817 6.1176 12.1817C7.48922 12.1838 8.8214 11.7249 9.89847 10.8795C8.47569 9.76438 7.56175 8.03369 7.56175 6.09087Z" fill="#EB001B"/>
<path d="M19.7979 6.09087C19.7979 9.4548 17.059 12.1817 13.6803 12.1817C12.3085 12.1837 10.9762 11.7249 9.89893 10.8795C11.3222 9.76418 12.2359 8.03369 12.2359 6.09087C12.2359 4.14804 11.3222 2.41755 9.89893 1.30228C10.9762 0.456866 12.3085 -0.00197552 13.6802 6.3936e-06C17.0589 6.3936e-06 19.7978 2.72694 19.7978 6.09087" fill="#F79E1B"/>
</svg>
