<svg width="21" height="21" viewBox="0 0 21 21" fill="none" xmlns="http://www.w3.org/2000/svg">
<g opacity="0.3">
<path d="M9.8988 20.3905C15.3658 20.3905 19.7976 15.9134 19.7976 10.3906C19.7976 4.86775 15.3658 0.390625 9.8988 0.390625C4.43184 0.390625 0 4.86775 0 10.3906C0 15.9134 4.43184 20.3905 9.8988 20.3905Z" fill="#121212"/>
<path d="M9.89981 20.2829C15.3075 20.2829 19.6912 15.8543 19.6912 10.3914C19.6912 4.92855 15.3075 0.5 9.89981 0.5C4.49216 0.5 0.108398 4.92855 0.108398 10.3914C0.108398 15.8543 4.49216 20.2829 9.89981 20.2829Z" stroke="#F0F0D6"/>
</g>
<path d="M9.89726 20.3923C8.0573 20.3952 6.25377 19.878 4.68994 18.8987L11.3211 0.494141C12.4947 0.664616 13.629 1.04819 14.6674 1.62645C17.8334 3.38254 19.7999 6.74265 19.7961 10.3914C19.7961 11.0685 19.7289 11.7436 19.5947 12.4071C19.3358 13.6866 18.8296 14.9013 18.1057 15.9832C17.0308 17.5911 15.5188 18.8493 13.7507 19.6058C13.1515 19.8615 12.5292 20.0572 11.8926 20.1889C11.2358 20.3245 10.5675 20.3923 9.89726 20.3923Z" fill="#6E7BF2"/>
<path d="M6.54038 10.3475C6.54326 10.1789 6.526 10.0114 6.48957 9.84766H4.21143V10.7572H5.54897C5.49815 11.0797 5.31886 11.3664 5.05422 11.5524L5.04943 11.5824L5.7695 12.1462L5.81936 12.151C6.30164 11.6803 6.56436 11.0255 6.5423 10.3484" fill="#4285F4"/>
<path d="M4.21085 12.7446C4.80148 12.7611 5.37676 12.5489 5.81782 12.1508L5.05173 11.5513C4.80339 11.7198 4.50904 11.805 4.21085 11.7963C3.58186 11.7924 3.02575 11.3827 2.83015 10.7773L2.80139 10.7793L2.05256 11.3653L2.04297 11.3924C2.4543 12.2215 3.29326 12.7446 4.21085 12.7446Z" fill="#34A853"/>
<path d="M2.83515 10.7779C2.78241 10.622 2.75461 10.4583 2.75461 10.2936C2.75556 10.1289 2.78241 9.96525 2.83323 9.8093L2.83227 9.77734L2.07385 9.18164L2.04892 9.19326C1.70375 9.88582 1.70375 10.7014 2.04892 11.3939L2.83515 10.7779Z" fill="#FBBC05"/>
<path d="M4.21085 8.78929C4.5589 8.78348 4.89448 8.91424 5.14953 9.15446L5.83412 8.47933C5.39498 8.06283 4.81298 7.83424 4.21085 7.84199C3.29326 7.84199 2.4543 8.36407 2.04297 9.1932L2.82728 9.80924C3.02479 9.20385 3.58091 8.79413 4.21085 8.78929Z" fill="#EB4335"/>
<path d="M10.3577 10.5647V12.346H9.79395V7.94563H11.2887C11.6492 7.93788 11.9973 8.07445 12.2571 8.32629C12.7663 8.79994 12.7989 9.60195 12.329 10.1163C12.306 10.1415 12.2821 10.1657 12.2571 10.1889C11.9963 10.4388 11.6483 10.5735 11.2887 10.5638H10.3577V10.5647ZM10.3577 8.48805V10.0243H11.3031C11.5121 10.031 11.7144 9.94774 11.8602 9.79664C12.1545 9.5109 12.1632 9.03919 11.8803 8.74182C11.8784 8.73989 11.8765 8.73795 11.8746 8.73601C11.8698 8.73117 11.865 8.72536 11.8602 8.72148C11.7154 8.56747 11.5131 8.48224 11.3031 8.48805H10.3577ZM13.96 9.23775C14.3195 9.21741 14.6724 9.33752 14.9466 9.57192C15.194 9.8102 15.3253 10.1453 15.3081 10.4902V12.346H14.7702V11.9276H14.7462C14.5468 12.253 14.193 12.4487 13.8143 12.4439C13.5113 12.4535 13.215 12.348 12.9849 12.1484C12.7691 11.9663 12.6464 11.6951 12.6512 11.4113C12.6416 11.1207 12.773 10.8427 13.0031 10.6684C13.2764 10.4718 13.6071 10.3739 13.9427 10.3914C14.2294 10.3807 14.5142 10.4437 14.7692 10.5754V10.4446C14.7702 10.2509 14.6849 10.0669 14.5362 9.94484C14.3867 9.8102 14.193 9.73659 13.9916 9.73852C13.6906 9.73174 13.4077 9.88285 13.2447 10.1376L12.75 9.82376C13.0261 9.42857 13.4835 9.20579 13.961 9.23485L13.96 9.23775ZM13.2303 11.4249C13.2294 11.5711 13.2994 11.7096 13.4173 11.7949C13.5419 11.8937 13.6973 11.945 13.8555 11.9421C14.0933 11.9421 14.3205 11.8472 14.4902 11.6777C14.6676 11.5217 14.7702 11.2951 14.7702 11.0568C14.5554 10.9047 14.2965 10.8301 14.0348 10.8456C13.8315 10.8379 13.6302 10.896 13.4624 11.0122C13.3195 11.1014 13.2332 11.2573 13.2303 11.4249ZM18.4022 9.33558L16.521 13.674H15.9399L16.638 12.1562L15.4001 9.33558H16.0128L16.9074 11.4985H16.9198L17.7895 9.33558H18.4022Z" fill="#121212"/>
</svg>
