<svg width="176" height="59" viewBox="0 0 176 59" fill="none" xmlns="http://www.w3.org/2000/svg">
<g clip-path="url(#clip0_2321_5042)">
<path d="M28.3473 56.0965C27.9913 56.0841 27.641 56.0673 27.2872 56.0404C27.1298 56.0281 26.969 56.0169 26.8116 56.0024C26.5688 55.9822 26.3304 55.9554 26.0875 55.9262C25.9799 55.9139 25.8746 55.8993 25.766 55.8848C25.4855 55.849 25.2083 55.8086 24.9311 55.7605C24.818 55.7425 24.7004 55.7224 24.5863 55.7011C24.0729 55.6104 23.5618 55.5041 23.0594 55.3831C22.9164 55.3483 22.7734 55.3125 22.6304 55.2745C22.5084 55.2453 22.382 55.2128 22.2633 55.177C21.9806 55.1009 21.7001 55.0181 21.4196 54.9295C21.2965 54.8915 21.1745 54.8534 21.0514 54.812C20.8996 54.765 20.7476 54.7112 20.5957 54.6586C20.4671 54.6138 20.3385 54.5702 20.211 54.5198C20.1267 54.4906 20.0446 54.4616 19.9626 54.4291C19.8163 54.3765 19.6732 54.3204 19.5301 54.2611C18.9525 54.0337 18.3858 53.7829 17.8315 53.5153C17.6918 53.4471 17.5521 53.3798 17.4146 53.3093C16.8779 53.0405 16.3524 52.7516 15.8356 52.4426C15.6982 52.3631 15.5618 52.2802 15.4265 52.1951C13.842 51.2164 12.3618 50.0665 11.0135 48.7665C10.8992 48.6601 10.7884 48.5515 10.6809 48.4395C10.57 48.3309 10.4591 48.2178 10.3538 48.1069C10.243 47.9983 10.1376 47.8863 10.0323 47.771C9.94806 47.6826 9.86268 47.5885 9.78059 47.4967C9.44244 47.1249 9.11868 46.7453 8.80263 46.3557C8.60413 46.1138 8.41126 45.8663 8.22498 45.6167C8.1285 45.489 8.03541 45.3625 7.94448 45.236C7.85138 45.1095 7.75819 44.9796 7.67065 44.8497C7.58639 44.7321 7.5043 44.6134 7.4256 44.4925C7.32912 44.3514 7.23602 44.2058 7.14284 44.0625C7.0552 43.9293 6.97094 43.7971 6.88894 43.6617C6.8013 43.5261 6.71931 43.3907 6.6406 43.2552C6.39555 42.8453 6.16159 42.43 5.9376 42.0021C5.86218 41.8599 5.78903 41.7189 5.71916 41.5744C5.64374 41.4333 5.57284 41.2877 5.50626 41.1433C5.4364 40.9966 5.36653 40.851 5.29892 40.7044L20.3152 23.8487C25.2194 18.896 33.1993 18.896 38.1025 23.8487L53.1221 40.7044C52.8005 41.4031 52.4479 42.0895 52.0687 42.7591C52.0077 42.8655 51.9456 42.9718 51.8813 43.0783C51.8258 43.1724 51.7704 43.2641 51.7149 43.3582C51.6185 43.5206 51.5187 43.6796 51.4178 43.8386C48.7766 47.9985 45.0611 51.3297 40.6703 53.4696C37.0857 55.2231 33.2282 56.1133 29.2055 56.1133C28.9161 56.1133 28.63 56.1077 28.344 56.0987M2.85732 29.4989C2.85732 14.8245 14.6781 2.889 29.2077 2.889C43.7373 2.889 55.5636 14.8245 55.5636 29.4989C55.5636 32.3408 55.1289 35.1145 54.2641 37.7739L40.1226 23.4947C34.1041 17.4167 24.3146 17.4167 18.2961 23.4947L4.15462 37.7773C3.29091 35.1179 2.85619 32.342 2.85619 29.5M0 29.4989C0 33.1571 0.654196 36.718 1.94039 40.0929C2.04797 40.3796 2.16213 40.6651 2.27967 40.9473C6.85895 51.9131 17.4279 59 29.2077 59C33.6672 59 37.9438 58.0124 41.9188 56.064C46.7809 53.6935 50.8967 50.0061 53.8239 45.3961C54.7198 43.9841 55.5026 42.4869 56.1413 40.945L56.1735 40.8655C56.2755 40.6236 56.372 40.3818 56.4629 40.1399C57.7624 36.7493 58.421 33.1739 58.421 29.4989C58.421 13.2333 45.3162 0 29.2078 0C13.0993 0 9.40342e-05 13.2321 9.40342e-05 29.4989H0Z" fill="#DBF227"/>
<path d="M101.193 43.8547H97.1781C95.041 38.3424 92.9317 32.8674 90.8316 27.4206C88.7316 21.983 86.6407 16.4987 84.5406 10.9864L71.2001 43.8548H69.5719L84.92 5.89453H86.6037C89.0276 12.2477 91.4515 18.5728 93.8753 24.87C96.2991 31.1671 98.7416 37.4923 101.193 43.8455" fill="#F0F0D6"/>
<path d="M120.825 4.52093C123.535 4.52093 126.07 5.03478 128.42 6.05318C130.77 7.07158 132.833 8.48237 134.6 10.2668L133.027 12.1261C131.51 10.2668 129.697 8.78131 127.606 7.68818C125.506 6.59505 123.248 6.04387 120.825 6.04387C118.401 6.04387 116.467 6.5204 114.478 7.46397C112.489 8.41694 110.75 9.70627 109.27 11.3507C107.789 12.995 106.624 14.9196 105.773 17.1339C104.921 19.3388 104.496 21.7119 104.496 24.2252C104.496 26.7384 104.921 29.1022 105.773 31.2884C106.624 33.484 107.789 35.3993 109.27 37.0436C110.75 38.688 112.489 39.9867 114.478 40.9303C116.467 41.8833 118.586 42.3504 120.825 42.3504C123.063 42.3504 125.034 41.902 126.958 41.0051C128.873 40.1081 130.566 38.8936 132.028 37.3613C133.49 35.8291 134.674 34.0166 135.581 31.9424C136.487 29.859 136.987 27.6166 137.098 25.2062H120.825V23.674H140.354V24.2253C140.354 26.9254 139.836 29.476 138.809 31.8678C137.782 34.2596 136.385 36.3524 134.637 38.1369C132.879 39.9308 130.825 41.3415 128.457 42.3785C126.089 43.4157 123.544 43.9388 120.834 43.9388C118.123 43.9388 115.579 43.4157 113.211 42.3785C110.842 41.3414 108.779 39.9213 107.031 38.1369C105.273 36.3524 103.885 34.2596 102.858 31.8678C101.831 29.476 101.313 26.9254 101.313 24.2253C101.313 21.5251 101.831 18.9185 102.858 16.5267C103.885 14.1349 105.282 12.0514 107.031 10.2856C108.789 8.51048 110.842 7.10909 113.211 6.07198C115.579 5.03488 118.123 4.51172 120.834 4.51172" fill="#F0F0D6"/>
<path d="M144.536 5.89453H157.229C159.801 5.89453 162.215 6.39908 164.5 7.39877C166.776 8.40776 168.765 9.76252 170.468 11.4817C172.17 13.2008 173.511 15.2095 174.51 17.5078C175.51 19.8061 176 22.2727 176 24.898C176 27.5233 175.5 29.9899 174.51 32.2882C173.511 34.5866 172.17 36.5954 170.468 38.3144C168.765 40.0335 166.776 41.3882 164.5 42.3973C162.225 43.4063 159.801 43.9015 157.229 43.9015H144.536V5.89453ZM148.273 7.42678V42.3693H155.434C157.821 42.3693 160.05 41.9115 162.132 40.9959C164.214 40.0803 166.036 38.8283 167.609 37.2401C169.182 35.6518 170.421 33.8019 171.328 31.681C172.235 29.5602 172.688 27.2992 172.688 24.8887C172.688 22.4782 172.235 20.2172 171.328 18.0964C170.421 15.9756 169.182 14.1257 167.609 12.5374C166.036 10.9491 164.214 9.69709 162.132 8.78154C160.051 7.8659 157.821 7.40817 155.434 7.40817H148.273V7.42678Z" fill="#F0F0D6"/>
<path d="M76.5104 52.5996V56.29H75.8628L75.798 54.8605C75.2984 55.7948 74.4102 56.4115 73.152 56.4115C71.1075 56.4115 69.5718 54.8045 69.5718 52.8519C69.5718 50.8992 71.1908 49.1895 73.1983 49.1895C75.2058 49.1895 76.094 50.0584 76.4825 51.628H75.6221C75.2798 50.4975 74.2252 49.9555 73.2075 49.9555C71.6071 49.9555 70.3766 51.1701 70.3766 52.8612C70.3766 54.5522 71.5238 55.664 73.1428 55.664C74.7618 55.664 75.4557 54.6643 75.6407 53.3657V52.6182H76.4918L76.5104 52.5995V52.5996Z" fill="#A5B2BA"/>
<path d="M85.7248 52.7954C85.7248 54.804 84.115 56.411 82.126 56.411C80.137 56.411 78.5272 54.804 78.5272 52.7954C78.5272 50.7867 80.137 49.1797 82.126 49.1797C84.115 49.1797 85.7248 50.7867 85.7248 52.7954ZM84.9106 52.7954C84.9106 51.2164 83.6894 49.9365 82.126 49.9365C80.5626 49.9365 79.3414 51.2071 79.3414 52.7954C79.3414 54.3836 80.5626 55.6543 82.126 55.6543C83.6894 55.6543 84.9106 54.3836 84.9106 52.7954Z" fill="#A5B2BA"/>
<path d="M92.4412 55.5418V56.2893H87.8248V49.3008H88.6297V55.5325H92.4412V55.5418Z" fill="#A5B2BA"/>
<path d="M100.296 52.7484C100.296 54.8225 98.7785 56.2893 96.6415 56.2893H94.2084V49.3008H96.6415C98.7786 49.3008 100.296 50.7303 100.296 52.739V52.7484ZM99.4724 52.7484C99.4724 51.1881 98.2882 50.0576 96.6415 50.0576H95.0133V55.5419H96.6415C98.2882 55.5419 99.4724 54.3834 99.4724 52.7484Z" fill="#A5B2BA"/>
<path d="M110.796 56.29L109.889 55.4678C109.288 56.0938 108.557 56.4207 107.66 56.4207C106.189 56.4207 105.208 55.5705 105.208 54.3559C105.208 53.1413 105.809 52.7489 106.614 52.422C106.18 51.9174 105.976 51.497 105.976 50.9832C105.976 49.9088 106.827 49.1426 107.993 49.1426C109.159 49.1426 109.862 49.8433 110 51.0112H109.223C109.122 50.2357 108.631 49.8433 107.984 49.8433C107.336 49.8433 106.781 50.3199 106.781 51.0019C106.781 51.6839 107.392 52.2538 108.548 53.2816L109.815 54.4402L110.898 52.8706H111.712L110.38 54.842C110.361 54.8607 110.352 54.8794 110.324 54.9167L111.832 56.2808H110.796V56.2901L110.796 56.29ZM109.381 55.0006L107.891 53.6553C107.595 53.3844 107.336 53.1507 107.105 52.9358C106.438 53.2068 105.976 53.6926 105.976 54.3559C105.976 55.0193 106.67 55.7293 107.678 55.7293C108.687 55.7293 108.899 55.4678 109.381 55.0006Z" fill="#A5B2BA"/>
<path d="M122.915 52.7484C122.915 54.8225 121.398 56.2893 119.261 56.2893H116.828V49.3008H119.261C121.398 49.3008 122.915 50.7303 122.915 52.739V52.7484ZM122.092 52.7484C122.092 51.1881 120.908 50.0576 119.261 50.0576H117.633V55.5419H119.261C120.908 55.5419 122.092 54.3834 122.092 52.7484Z" fill="#A5B2BA"/>
<path d="M125.82 49.3105V56.2991H125.016V49.3105H125.82Z" fill="#A5B2BA"/>
<path d="M132.851 54.3366H129.28L128.429 56.2893H127.569L130.696 49.3008H131.454L134.581 56.2893H133.721L132.87 54.3366H132.851ZM132.528 53.6079L131.066 50.2631L129.604 53.6079H132.537H132.528Z" fill="#A5B2BA"/>
<path d="M143.074 56.2893H142.269V51.0853L139.957 54.9532H139.429L137.098 51.0572L137.116 56.2893H136.312V49.3008H136.922L139.688 53.9629L142.454 49.3008H143.065V56.2893H143.074Z" fill="#A5B2BA"/>
<path d="M152.363 52.7954C152.363 54.804 150.753 56.411 148.764 56.411C146.775 56.411 145.165 54.804 145.165 52.7954C145.165 50.7867 146.775 49.1797 148.764 49.1797C150.753 49.1797 152.363 50.7867 152.363 52.7954ZM151.548 52.7954C151.548 51.2164 150.327 49.9365 148.764 49.9365C147.2 49.9365 145.979 51.2071 145.979 52.7954C145.979 54.3836 147.2 55.6543 148.764 55.6543C150.327 55.6543 151.548 54.3836 151.548 52.7954Z" fill="#A5B2BA"/>
<path d="M160.365 49.3105V56.2991H159.699L155.277 50.7961V56.2991H154.472V49.3105H155.12L159.56 54.8883V49.3105H160.365Z" fill="#A5B2BA"/>
<path d="M168.849 52.7484C168.849 54.8225 167.331 56.2893 165.194 56.2893H162.761V49.3008H165.194C167.331 49.3008 168.849 50.7303 168.849 52.739V52.7484ZM168.025 52.7484C168.025 51.1881 166.841 50.0576 165.194 50.0576H163.566V55.5419H165.194C166.841 55.5419 168.025 54.3834 168.025 52.7484Z" fill="#A5B2BA"/>
<path d="M175.991 51.2258H175.186C175.029 50.3943 174.455 49.8804 173.326 49.8804C172.198 49.8804 171.652 50.3382 171.652 51.1323C171.652 51.9264 172.087 52.0946 172.91 52.2628L174.039 52.4777C175.278 52.7206 175.982 53.2905 175.982 54.3183C175.982 55.3461 174.945 56.4111 173.391 56.4111C171.837 56.4111 170.653 55.5609 170.505 54.0474H171.3C171.467 55.0938 172.207 55.6824 173.437 55.6824C174.668 55.6824 175.168 55.1965 175.168 54.4117C175.168 53.627 174.788 53.4214 173.919 53.2719L172.623 53.0103C171.393 52.7766 170.801 52.1413 170.801 51.1791C170.801 50.2168 171.8 49.1797 173.28 49.1797C174.761 49.1797 175.824 49.787 175.991 51.2258H175.991Z" fill="#A5B2BA"/>
</g>
<defs>
<clipPath id="clip0_2321_5042">
<rect width="176" height="59" fill="white"/>
</clipPath>
</defs>
</svg>
