<svg width="89" height="87" viewBox="0 0 89 87" fill="none" xmlns="http://www.w3.org/2000/svg">
<path fill-rule="evenodd" clip-rule="evenodd" d="M44.3827 12.9448C44.6934 12.9448 45.0801 13.1386 45.5458 13.72L54.6177 25.0706C56.0896 26.9148 55.2372 28.3639 53.3018 28.1751H44.3827L49.7325 35.0632H61.1296C64.6189 35.257 67.4057 31.1822 63.9215 27.0111L48.0289 7.21825C46.7038 5.56779 45.5458 4.5 44.3827 4.5C43.2196 4.5 42.0545 5.56779 40.7385 7.21825L24.8459 27.0098C21.3576 31.1809 24.1474 35.2558 27.6367 35.0607H39.0328L44.3827 28.1739H35.4666C33.5281 28.3677 32.6748 26.9072 34.1507 25.0693L43.2216 13.72C43.6862 13.1386 44.0749 12.9448 44.3847 12.9448" fill="#2A58A3"/>
<path fill-rule="evenodd" clip-rule="evenodd" d="M44.3281 19.5625C44.98 19.562 45.6173 19.8034 46.1596 20.2562C46.7018 20.7089 47.1246 21.3527 47.3744 22.1061C47.6242 22.8595 47.6899 23.6887 47.5631 24.4889C47.4364 25.289 47.1228 26.0241 46.6621 26.6012C46.2015 27.1784 45.6144 27.5716 44.9751 27.7312C44.3358 27.8909 43.6731 27.8097 43.0707 27.498C42.4683 27.1863 41.9533 26.6581 41.5908 25.9802C41.2283 25.3022 41.0346 24.505 41.0342 23.6893C41.0344 22.5961 41.3815 21.5478 41.9992 20.7747C42.6168 20.0016 43.4545 19.567 44.3281 19.5663" fill="#E6363B"/>
<path fill-rule="evenodd" clip-rule="evenodd" d="M44.3472 42.5005H61.0162C63.7301 42.403 64.4286 41.5302 66.6768 36C63.5753 39.686 62.8778 39.8798 61.0162 39.8798H27.6782C25.8176 39.8798 25.1192 39.686 22.0176 36C24.2658 41.5302 24.9643 42.403 27.6782 42.5005H44.3472Z" fill="#2A58A3"/>
<path d="M58.7834 38.4028H59.2895V38.8385H58.7834V38.4028ZM58.7834 37.1463H59.2895V37.5833H58.7834V37.1463ZM55.6079 38.0557C55.6079 37.3502 56.4754 37.3971 56.4754 37.3971L56.5766 37.7074C56.4896 37.6808 56.0452 37.6707 56.027 38.0532C56.0299 38.1508 56.0634 38.2429 56.1202 38.3098C56.1771 38.3767 56.2527 38.4128 56.3307 38.4104H56.3489C56.425 38.4158 56.5012 38.3992 56.5714 38.3618C56.6416 38.3245 56.704 38.2674 56.7538 38.1951V37.1463H55.3467V36.8359H58.4595V37.1463H57.1779V37.6124C57.3045 37.4935 57.4602 37.4335 57.6183 37.4427C57.9817 37.4427 58.2874 37.7251 58.2874 38.0633C58.2874 38.5041 57.7903 38.9057 57.7903 38.9057L57.4705 38.6929C57.4806 38.6929 57.8632 38.4003 57.8632 38.0709C57.8623 38.0273 57.8545 37.9844 57.8404 37.9446C57.8262 37.9048 57.8059 37.8688 57.7806 37.8388C57.7553 37.8088 57.7255 37.7854 57.693 37.7698C57.6604 37.7542 57.6258 37.7468 57.5909 37.7479H57.5757C57.4986 37.7582 57.424 37.7881 57.3565 37.8359C57.2889 37.8836 57.2299 37.948 57.183 38.0253V39.1539H56.7528V38.6105C56.277 38.8917 55.6079 38.6371 55.6079 38.0595V38.0557ZM55.287 35.8593V36.0911C55.2113 36.0605 55.1315 36.0485 55.0522 36.0557C54.6128 36.0557 54.6594 36.7409 55.0046 36.8321H54.7272C54.6402 36.7853 54.4063 36.5307 54.4165 36.2989C54.4256 35.8897 54.9226 35.6579 55.287 35.8631V35.8593ZM54.2211 36.8372H55.2779V37.1488H55.0299V39.1463H54.5885V37.145H54.2251V36.8347L54.2211 36.8372ZM53.4032 37.5693C53.4619 37.5765 53.5212 37.5662 53.5761 37.5391C53.631 37.512 53.68 37.469 53.719 37.4135C53.7484 37.1146 53.1218 36.9955 53.1218 37.3502C53.1268 37.4819 53.2604 37.5693 53.4032 37.5693ZM52.3656 36.841H54.216V37.1513H53.9913C54.3841 37.6466 54.0196 38.3838 53.3708 38.4307C53.389 38.4307 53.5287 38.5573 53.634 38.6359C53.8202 38.7625 53.9873 38.8803 53.9964 38.8892L53.7484 39.1742C53.3192 38.969 52.9537 38.5776 52.6207 38.2597L52.897 38.0063L53.059 38.133C53.1171 38.1669 53.1825 38.1763 53.2453 38.1596C53.6279 38.0823 53.6907 37.8695 53.6998 37.7682C53.2554 38.0557 52.5529 37.6415 52.8161 37.1475H52.3757L52.3656 36.841ZM49.9554 36.841H52.3747V37.1513H51.9161V37.7847H50.8988C50.8399 37.7761 50.7807 37.7972 50.7342 37.8433C50.6876 37.8894 50.6577 37.9567 50.6508 38.0304V38.0431C50.6508 38.4623 51.2764 38.6118 51.4009 38.5307C51.3995 38.4798 51.4064 38.429 51.421 38.3814C51.4357 38.3338 51.4579 38.2904 51.4862 38.2538C51.5145 38.2172 51.5485 38.188 51.586 38.1682C51.6235 38.1483 51.6638 38.138 51.7046 38.1381H51.741C52.066 38.1381 52.1227 38.6194 51.8362 38.7157C51.8706 38.7986 51.9123 38.8763 51.9607 38.9475C52.0275 39.0615 52.148 39.2261 52.148 39.2261H51.6975C51.6975 39.2261 51.6256 39.0995 51.5872 39.0197C51.5487 38.9399 51.5396 38.9019 51.5112 38.8436C51.492 38.8525 50.2165 38.9019 50.2246 38.0063C50.2246 37.7188 50.503 37.4832 50.8229 37.4832H51.4748V37.1463H49.9564V36.8359L49.9554 36.841ZM49.2114 38.2103V38.4788L48.1505 39.1425L47.9025 38.8423L49.2114 38.2103ZM48.7781 38.4915C48.2092 38.4826 48.027 37.9962 48.027 37.8581V37.1488H47.7102V36.8385H49.9058V37.1488H49.6578V39.1463H49.2276V38.3863C49.0914 38.4735 48.9389 38.5129 48.7862 38.5003L48.7781 38.4915ZM49.2225 37.145H48.4653V37.8733C48.4653 38.0405 48.5605 38.2001 48.8034 38.2103C48.8835 38.2109 48.9628 38.1904 49.0363 38.1503C49.1097 38.1101 49.1755 38.0512 49.2296 37.9772L49.2225 37.145ZM46.6463 36.8347H47.7021V37.145H47.4531V39.1425H47.0127V37.145H46.6513V36.8347H46.6463ZM45.7514 37.4338V37.7023C45.6502 37.7125 45.1633 37.658 45.1633 37.2476C45.1633 36.9715 45.4498 36.7827 45.7707 36.7929C46.1867 36.7929 46.537 37.1171 46.537 37.4997C46.537 37.8822 46.132 38.228 45.7423 38.209C45.7423 38.209 45.8668 38.4497 46.2252 38.4395C46.383 38.4312 46.5378 38.3836 46.6807 38.2994C46.8236 38.2153 46.9516 38.0962 47.0573 37.9493V38.456C46.3831 38.9969 45.2939 38.7296 45.1076 37.8695C45.2403 37.909 45.3762 37.9285 45.5125 37.9278C45.7899 37.9278 46.1098 37.8011 46.1098 37.4629C46.112 37.3659 46.0836 37.2717 46.0308 37.2006C45.9779 37.1295 45.9049 37.0872 45.8274 37.0829C45.8098 37.0811 45.7922 37.0811 45.7747 37.0829C45.5014 37.0956 45.4913 37.4401 45.7636 37.4401L45.7514 37.4338ZM43.9577 38.4902C43.3898 38.4826 43.2137 37.9949 43.2137 37.8569V37.1539H42.8978V36.8435H45.0914V37.1539H44.8434V39.1514H44.4132V38.3914C44.2749 38.48 44.1198 38.5194 43.9648 38.5054L43.9577 38.4902ZM44.4031 37.1437H43.6378V37.8721C43.6378 38.0393 43.733 38.1989 43.9779 38.209C44.0579 38.2094 44.137 38.1889 44.2102 38.1488C44.2834 38.1086 44.3491 38.0497 44.4031 37.9759V37.1437ZM40.2072 38.4104H40.7134V38.8461H40.2072V38.4104ZM40.2072 37.1539H40.7134V37.5909H40.2072V37.1539ZM37.0277 38.0671C37.0277 37.3603 37.8962 37.4072 37.8962 37.4072L37.9975 37.7175C37.9104 37.6909 37.466 37.6821 37.4468 38.0633C37.4492 38.1122 37.4593 38.1599 37.4765 38.2038C37.4937 38.2478 37.5177 38.287 37.547 38.3194C37.5763 38.3517 37.6105 38.3765 37.6475 38.3924C37.6845 38.4082 37.7236 38.4148 37.7626 38.4117H37.7768C37.8529 38.418 37.9292 38.402 37.9995 38.3648C38.0699 38.3276 38.1322 38.2704 38.1817 38.1976V37.1539H36.7706V36.8435H39.8813V37.1539H38.6008V37.62C38.727 37.5012 38.8823 37.4412 39.0401 37.4503C39.4035 37.4503 39.7102 37.7327 39.7102 38.0709C39.7102 38.5117 39.2041 38.9133 39.2041 38.9133L38.8852 38.6878C38.8943 38.6878 39.277 38.3952 39.277 38.0671C39.2751 37.979 39.2454 37.8954 39.1944 37.8346C39.1433 37.7738 39.0751 37.7408 39.0047 37.7429H38.9905C38.9135 37.7533 38.8391 37.7833 38.7718 37.831C38.7044 37.8787 38.6455 37.9431 38.5987 38.0203V39.1489H38.1675V38.6055C37.7079 38.8917 37.0277 38.6371 37.0277 38.0595V38.0671ZM34.3563 36.8486H36.7655V37.1589H36.5175V39.1565H36.0762V37.9721H35.3109V38.2825C35.3126 38.3003 35.3113 38.3185 35.307 38.3356C35.3027 38.3528 35.2955 38.3686 35.2859 38.382C35.2763 38.3955 35.2646 38.4062 35.2514 38.4135C35.2383 38.4208 35.224 38.4245 35.2097 38.4243C35.2009 38.4256 35.1921 38.4256 35.1833 38.4243C35.0345 38.4155 34.6043 37.9177 34.6043 37.81C34.6043 37.6555 34.7622 37.6555 34.7815 37.6555H36.0681V37.1488H34.3573L34.3563 36.8486ZM33.2894 36.8486H34.3462V37.1589H34.0982V39.1565H33.6589V37.145H33.2945L33.2894 36.8486ZM32.6061 37.1589H31.8834V37.8417H32.6102L32.6061 37.1589ZM30.8853 36.8486H33.2945V37.1589H33.0515V39.1565H32.6061V38.1431H31.8834V38.4117C31.8835 38.432 31.8804 38.4521 31.8743 38.4709C31.8683 38.4897 31.8593 38.5068 31.8479 38.5213C31.8365 38.5358 31.823 38.5473 31.8081 38.5552C31.7931 38.5631 31.7771 38.5673 31.7609 38.5675H31.7447C31.6212 38.5675 31.1241 38.0608 31.1241 37.962C31.1241 37.8632 31.2821 37.848 31.2922 37.848H31.4592V37.1551H30.8853V36.8486Z" fill="#E6363B"/>
<path d="M11.4972 55.418C11.9452 55.6327 12.2998 55.9407 12.5612 56.342C12.8318 56.7433 12.9672 57.2053 12.9672 57.728C12.9672 58.512 12.6918 59.17 12.1412 59.702C11.5905 60.234 10.9185 60.5 10.1252 60.5H5.89717V50.7H9.81717C10.5825 50.7 11.2312 50.9567 11.7632 51.47C12.2952 51.9833 12.5612 52.618 12.5612 53.374C12.5612 54.242 12.2065 54.9233 11.4972 55.418ZM9.81717 51.918H7.19917V54.914H9.81717C10.2278 54.914 10.5732 54.7693 10.8532 54.48C11.1332 54.1907 11.2732 53.836 11.2732 53.416C11.2732 53.0053 11.1285 52.6553 10.8392 52.366C10.5592 52.0673 10.2185 51.918 9.81717 51.918ZM10.1252 59.282C10.5638 59.282 10.9325 59.128 11.2312 58.82C11.5298 58.512 11.6792 58.134 11.6792 57.686C11.6792 57.2473 11.5252 56.874 11.2172 56.566C10.9185 56.258 10.5545 56.104 10.1252 56.104H7.19917V59.282H10.1252ZM15.0004 52.226C14.7671 52.226 14.5711 52.1467 14.4124 51.988C14.2538 51.8293 14.1744 51.638 14.1744 51.414C14.1744 51.19 14.2538 50.9987 14.4124 50.84C14.5711 50.672 14.7671 50.588 15.0004 50.588C15.2244 50.588 15.4158 50.672 15.5744 50.84C15.7331 50.9987 15.8124 51.19 15.8124 51.414C15.8124 51.638 15.7331 51.8293 15.5744 51.988C15.4158 52.1467 15.2244 52.226 15.0004 52.226ZM14.3844 60.5V53.5H15.6024V60.5H14.3844ZM18.4969 55.39C18.4969 55.6607 18.6323 55.88 18.9029 56.048C19.1736 56.2067 19.5003 56.3373 19.8829 56.44C20.2656 56.5333 20.6483 56.6453 21.0309 56.776C21.4136 56.8973 21.7403 57.112 22.0109 57.42C22.2816 57.7187 22.4169 58.106 22.4169 58.582C22.4169 59.2167 22.1696 59.7253 21.6749 60.108C21.1896 60.4907 20.5643 60.682 19.7989 60.682C19.1176 60.682 18.5343 60.5327 18.0489 60.234C17.5636 59.9353 17.2183 59.5387 17.0129 59.044L18.0629 58.442C18.1749 58.778 18.3849 59.044 18.6929 59.24C19.0009 59.436 19.3696 59.534 19.7989 59.534C20.2003 59.534 20.5316 59.4593 20.7929 59.31C21.0543 59.1513 21.1849 58.9087 21.1849 58.582C21.1849 58.3113 21.0496 58.0967 20.7789 57.938C20.5083 57.77 20.1816 57.6393 19.7989 57.546C19.4163 57.4433 19.0336 57.3267 18.6509 57.196C18.2683 57.0653 17.9416 56.8507 17.6709 56.552C17.4003 56.2533 17.2649 55.8707 17.2649 55.404C17.2649 54.7973 17.4983 54.298 17.9649 53.906C18.4409 53.514 19.0336 53.318 19.7429 53.318C20.3123 53.318 20.8163 53.4487 21.2549 53.71C21.7029 53.962 22.0389 54.3167 22.2629 54.774L21.2409 55.348C20.9889 54.7507 20.4896 54.452 19.7429 54.452C19.3976 54.452 19.1036 54.536 18.8609 54.704C18.6183 54.8627 18.4969 55.0913 18.4969 55.39ZM33.5471 50.7H34.8351V60.5H33.5471V56.09H28.7871V60.5H27.4851V50.7H28.7871V54.858H33.5471V50.7ZM42.6023 53.5H43.8203V60.5H42.6023V59.296C41.9957 60.22 41.1137 60.682 39.9563 60.682C38.9763 60.682 38.141 60.3273 37.4503 59.618C36.7597 58.8993 36.4143 58.0267 36.4143 57C36.4143 55.9733 36.7597 55.1053 37.4503 54.396C38.141 53.6773 38.9763 53.318 39.9563 53.318C41.1137 53.318 41.9957 53.78 42.6023 54.704V53.5ZM40.1103 59.506C40.8197 59.506 41.4123 59.268 41.8883 58.792C42.3643 58.3067 42.6023 57.7093 42.6023 57C42.6023 56.2907 42.3643 55.698 41.8883 55.222C41.4123 54.7367 40.8197 54.494 40.1103 54.494C39.4103 54.494 38.8223 54.7367 38.3463 55.222C37.8703 55.698 37.6323 56.2907 37.6323 57C37.6323 57.7093 37.8703 58.3067 38.3463 58.792C38.8223 59.268 39.4103 59.506 40.1103 59.506ZM45.6657 60.5V50.28H46.8837V60.5H45.6657ZM48.7419 60.5V50.28H49.9599V60.5H48.7419ZM57.614 53.5H58.832V60.5H57.614V59.296C57.0074 60.22 56.1254 60.682 54.968 60.682C53.988 60.682 53.1527 60.3273 52.462 59.618C51.7714 58.8993 51.426 58.0267 51.426 57C51.426 55.9733 51.7714 55.1053 52.462 54.396C53.1527 53.6773 53.988 53.318 54.968 53.318C56.1254 53.318 57.0074 53.78 57.614 54.704V53.5ZM55.122 59.506C55.8314 59.506 56.424 59.268 56.9 58.792C57.376 58.3067 57.614 57.7093 57.614 57C57.614 56.2907 57.376 55.698 56.9 55.222C56.424 54.7367 55.8314 54.494 55.122 54.494C54.422 54.494 53.834 54.7367 53.358 55.222C52.882 55.698 52.644 56.2907 52.644 57C52.644 57.7093 52.882 58.3067 53.358 58.792C53.834 59.268 54.422 59.506 55.122 59.506ZM68.2374 53.318C69.0214 53.318 69.6561 53.5747 70.1414 54.088C70.6268 54.592 70.8694 55.278 70.8694 56.146V60.5H69.6514V56.188C69.6514 55.6467 69.5114 55.2267 69.2314 54.928C68.9514 54.6293 68.5781 54.48 68.1114 54.48C67.5888 54.48 67.1688 54.6573 66.8514 55.012C66.5434 55.3573 66.3894 55.8893 66.3894 56.608V60.5H65.1714V56.188C65.1714 55.6467 65.0361 55.2267 64.7654 54.928C64.5041 54.6293 64.1448 54.48 63.6874 54.48C63.1741 54.48 62.7448 54.6573 62.3994 55.012C62.0634 55.3667 61.8954 55.8987 61.8954 56.608V60.5H60.6774V53.5H61.8954V54.438C62.3714 53.6913 63.0668 53.318 63.9814 53.318C64.9241 53.318 65.6101 53.7147 66.0394 54.508C66.5248 53.7147 67.2574 53.318 68.2374 53.318ZM73.7763 54.676C74.1776 53.808 74.9056 53.374 75.9603 53.374V54.648C75.3629 54.62 74.8496 54.7787 74.4203 55.124C73.9909 55.4693 73.7763 56.0247 73.7763 56.79V60.5H72.5583V53.5H73.7763V54.676ZM83.074 60.5H81.562L78.37 57.182V60.5H77.152V50.7H78.37V56.594L81.394 53.5H82.962L79.616 56.888L83.074 60.5Z" fill="#F0F0D6"/>
<path d="M23.4972 68.624H18.9472V72.236H23.2872V73.16H18.9472V77.5H17.9672V67.7H23.4972V68.624ZM30.8982 76.618C30.1889 77.318 29.3209 77.668 28.2942 77.668C27.2676 77.668 26.3949 77.318 25.6762 76.618C24.9669 75.9087 24.6122 75.036 24.6122 74C24.6122 72.964 24.9669 72.096 25.6762 71.396C26.3949 70.6867 27.2676 70.332 28.2942 70.332C29.3209 70.332 30.1889 70.6867 30.8982 71.396C31.6169 72.096 31.9762 72.964 31.9762 74C31.9762 75.036 31.6169 75.9087 30.8982 76.618ZM26.3342 75.974C26.8662 76.506 27.5196 76.772 28.2942 76.772C29.0689 76.772 29.7222 76.506 30.2542 75.974C30.7862 75.4327 31.0522 74.7747 31.0522 74C31.0522 73.2253 30.7862 72.572 30.2542 72.04C29.7222 71.4987 29.0689 71.228 28.2942 71.228C27.5196 71.228 26.8662 71.4987 26.3342 72.04C25.8022 72.572 25.5362 73.2253 25.5362 74C25.5362 74.7747 25.8022 75.4327 26.3342 75.974ZM34.4465 71.662C34.8758 70.8127 35.6131 70.388 36.6585 70.388V71.284C36.0238 71.284 35.4965 71.4707 35.0765 71.844C34.6565 72.2173 34.4465 72.8053 34.4465 73.608V77.5H33.5225V70.5H34.4465V71.662ZM50.9308 72.838V73.342C50.9308 74.5553 50.4968 75.582 49.6288 76.422C48.7608 77.2527 47.5988 77.668 46.1428 77.668C44.6588 77.668 43.4315 77.178 42.4608 76.198C41.4902 75.218 41.0048 74.0187 41.0048 72.6C41.0048 71.1813 41.4902 69.982 42.4608 69.002C43.4315 68.022 44.6588 67.532 46.1428 67.532C47.0482 67.532 47.8788 67.7513 48.6348 68.19C49.3908 68.6287 49.9742 69.212 50.3848 69.94L49.5168 70.444C49.2088 69.8467 48.7515 69.3707 48.1448 69.016C47.5382 68.6613 46.8708 68.484 46.1428 68.484C44.9202 68.484 43.9215 68.8807 43.1468 69.674C42.3722 70.4673 41.9848 71.4427 41.9848 72.6C41.9848 73.7573 42.3722 74.7327 43.1468 75.526C43.9215 76.3193 44.9202 76.716 46.1428 76.716C47.2442 76.716 48.1262 76.4407 48.7888 75.89C49.4515 75.33 49.8295 74.6207 49.9228 73.762H46.0308V72.838H50.9308ZM58.3377 76.618C57.6284 77.318 56.7604 77.668 55.7337 77.668C54.707 77.668 53.8344 77.318 53.1157 76.618C52.4064 75.9087 52.0517 75.036 52.0517 74C52.0517 72.964 52.4064 72.096 53.1157 71.396C53.8344 70.6867 54.707 70.332 55.7337 70.332C56.7604 70.332 57.6284 70.6867 58.3377 71.396C59.0564 72.096 59.4157 72.964 59.4157 74C59.4157 75.036 59.0564 75.9087 58.3377 76.618ZM53.7737 75.974C54.3057 76.506 54.959 76.772 55.7337 76.772C56.5084 76.772 57.1617 76.506 57.6937 75.974C58.2257 75.4327 58.4917 74.7747 58.4917 74C58.4917 73.2253 58.2257 72.572 57.6937 72.04C57.1617 71.4987 56.5084 71.228 55.7337 71.228C54.959 71.228 54.3057 71.4987 53.7737 72.04C53.2417 72.572 52.9757 73.2253 52.9757 74C52.9757 74.7747 53.2417 75.4327 53.7737 75.974ZM60.9619 77.5V67.28H61.8859V77.5H60.9619ZM69.8667 67.7H70.7907V77.5H69.8667V76.128C69.2227 77.1547 68.28 77.668 67.0387 77.668C66.04 77.668 65.186 77.3133 64.4767 76.604C63.7767 75.8947 63.4267 75.0267 63.4267 74C63.4267 72.9733 63.7767 72.1053 64.4767 71.396C65.186 70.6867 66.04 70.332 67.0387 70.332C68.28 70.332 69.2227 70.8453 69.8667 71.872V67.7ZM65.1487 75.974C65.6807 76.506 66.334 76.772 67.1087 76.772C67.8834 76.772 68.5367 76.506 69.0687 75.974C69.6007 75.4327 69.8667 74.7747 69.8667 74C69.8667 73.2253 69.6007 72.572 69.0687 72.04C68.5367 71.4987 67.8834 71.228 67.1087 71.228C66.334 71.228 65.6807 71.4987 65.1487 72.04C64.6167 72.572 64.3507 73.2253 64.3507 74C64.3507 74.7747 64.6167 75.4327 65.1487 75.974Z" fill="#A5B2BA"/>
</svg>
