<svg width="20" height="7" viewBox="0 0 20 7" fill="none" xmlns="http://www.w3.org/2000/svg">
<path d="M19.7319 1.84254C19.5522 1.3253 19.0624 0.953877 18.4872 0.953877H18.4751C18.1012 0.953877 17.7641 1.11053 17.5243 1.36206C17.284 1.11053 16.9469 0.953877 16.5734 0.953877H16.5613C16.2326 0.953877 15.9321 1.07506 15.7014 1.27556V1.17359C15.6935 1.07203 15.6105 0.992224 15.508 0.992224H14.6256C14.5177 0.992224 14.4305 1.08 14.4305 1.18898V6.01266C14.4305 6.12172 14.5177 6.20941 14.6256 6.20941H15.508C15.6063 6.20941 15.6873 6.13543 15.7002 6.03976L15.6998 2.57694C15.6998 2.56483 15.7002 2.55358 15.7015 2.54226C15.7155 2.38768 15.828 2.26069 16.0057 2.24474H16.1684C16.2427 2.25144 16.3054 2.27775 16.3547 2.31745C16.4315 2.37883 16.4742 2.4733 16.4742 2.57694L16.4775 6.0227C16.4775 6.13176 16.5651 6.21993 16.6726 6.21993H17.555C17.6591 6.21993 17.7439 6.13638 17.7488 6.03235L17.7485 2.5724C17.7481 2.45872 17.8003 2.35595 17.892 2.29497C17.9372 2.26571 17.9917 2.2461 18.0543 2.2402H18.217C18.4079 2.25694 18.5233 2.40275 18.5229 2.5724L18.5262 6.01353C18.5262 6.12259 18.6138 6.21029 18.7213 6.21029H19.6036C19.7111 6.21029 19.7987 6.12251 19.7987 6.01353V2.31258C19.7987 2.06018 19.7705 1.9528 19.7319 1.84254ZM13.7583 1.00482H13.2536V0.179216C13.2536 0.0802006 13.1739 0 13.0755 0C13.0639 0 13.0527 0.00167417 13.0419 0.00374695C12.4824 0.158328 12.5944 0.938411 11.5731 1.00482H11.4739C11.4589 1.00482 11.4448 1.00689 11.4311 1.00984H11.4303L11.4311 1.01024C11.3439 1.02985 11.2783 1.10758 11.2783 1.20118V2.08952C11.2783 2.1977 11.3659 2.28588 11.4738 2.28588H12.0063L12.0055 6.05252C12.0055 6.1599 12.0918 6.2468 12.1985 6.2468H13.0709C13.1771 6.2468 13.2635 6.1599 13.2635 6.05252L13.2639 2.28588H13.7582C13.8657 2.28588 13.9532 2.1977 13.9532 2.08952V1.20126C13.9534 1.09299 13.8658 1.00482 13.7583 1.00482Z" fill="#54C1F0"/>
<path d="M10.5833 1.00407H9.70092C9.59345 1.00407 9.50626 1.09224 9.50626 1.20042V3.03714C9.5042 3.15083 9.41289 3.24187 9.29957 3.24187H8.93021C8.81569 3.24187 8.72311 3.14915 8.72311 3.0338L8.71979 1.20042C8.71979 1.09224 8.6322 1.00407 8.52473 1.00407H7.64228C7.53434 1.00407 7.44722 1.09224 7.44722 1.20042V3.21349C7.44722 3.97811 7.98883 4.52333 8.74877 4.52333C8.74877 4.52333 9.31905 4.52333 9.33647 4.52668C9.43942 4.53839 9.51949 4.62529 9.51949 4.73228C9.51949 4.83799 9.44101 4.92449 9.33932 4.9374C9.33433 4.9382 9.32974 4.93948 9.32435 4.94035L8.03397 4.94498C7.92603 4.94498 7.83892 5.03315 7.83892 5.14133V6.0292C7.83892 6.13786 7.92611 6.22556 8.03397 6.22556H9.47664C10.237 6.22556 10.7782 5.68074 10.7782 4.91572V1.2005C10.7784 1.09224 10.6912 1.00407 10.5833 1.00407ZM2.12002 1.00391H0.191332C0.0855293 1.00391 0 1.09033 0 1.19652V2.06684C0 2.06852 0.000395969 2.07019 0.000395969 2.07187C0.000395969 2.07601 0 2.08024 0 2.08398V6.02306C0 6.13005 0.0796689 6.21735 0.178503 6.21982H1.07751C1.18498 6.21982 1.27256 6.13204 1.27256 6.02346L1.27589 4.67352H2.1201C2.8265 4.67352 3.31877 4.18012 3.31877 3.46605V2.21305C3.31869 1.49898 2.82643 1.00391 2.12002 1.00391ZM2.04241 3.17985C2.04241 3.29473 1.94983 3.38832 1.83571 3.38832L1.27581 3.38872V2.29031H1.83571C1.94983 2.29031 2.04241 2.38302 2.04241 2.49838V3.17985ZM5.56328 1.00893H4.33895C4.23061 1.00893 4.14302 1.09168 4.14302 1.19317V1.53868C4.14302 1.54076 4.14342 1.54331 4.14342 1.54538C4.14342 1.54785 4.14302 1.5504 4.14302 1.55287V2.02627C4.14302 2.13365 4.236 2.22135 4.35051 2.22135H5.5164C5.6085 2.23593 5.6816 2.30362 5.69197 2.40933V2.52381C5.6816 2.6245 5.60937 2.69801 5.52139 2.70638H4.94407C4.1762 2.70638 3.62921 3.21987 3.62921 3.94104V4.97384C3.62921 5.69078 4.09947 6.20092 4.86186 6.20092H6.46189C6.74913 6.20092 6.98196 5.98201 6.98196 5.71246V2.3422C6.98196 1.52497 6.56358 1.00893 5.56328 1.00893ZM5.70361 4.85577C5.70361 4.86709 5.70195 4.87793 5.70029 4.88838C5.69821 4.89818 5.69543 4.90783 5.69197 4.91724C5.66457 4.99496 5.58736 5.05133 5.49565 5.05133H5.12835C5.01384 5.05133 4.92039 4.96355 4.92039 4.85577V4.68819C4.92039 4.68612 4.91999 4.68405 4.91999 4.68189L4.92039 4.23609V4.09657L4.92078 4.0953C4.92118 3.98791 5.01376 3.90101 5.12827 3.90101H5.49557C5.61056 3.90101 5.70354 3.98831 5.70354 4.09657V4.85577H5.70361Z" fill="#233266"/>
</svg>
