<svg width="21" height="21" viewBox="0 0 21 21" fill="none" xmlns="http://www.w3.org/2000/svg">
<path d="M18.7395 12.5114C19.8324 7.8181 16.9663 3.11503 12.338 2.00679C7.7097 0.89855 3.07175 3.80482 1.97886 8.49812C0.885965 13.1914 3.75199 17.8945 8.3803 19.0027C13.0086 20.111 17.6466 17.2047 18.7395 12.5114Z" fill="#5F259F"/>
<path d="M14.2662 8.2261C14.2662 7.8847 13.9777 7.59182 13.6407 7.59182H12.4863L9.84076 4.51865C9.60008 4.22607 9.21527 4.12844 8.83046 4.22607L7.91643 4.51865C7.77231 4.56747 7.72389 4.76272 7.82016 4.86005L10.7067 7.64064H6.32906C6.18465 7.64064 6.08838 7.73826 6.08838 7.8847V8.37225C6.08838 8.71394 6.3772 9.00652 6.71387 9.00652H7.38721V11.3478C7.38721 13.1042 8.30124 14.1284 9.84076 14.1284C10.3216 14.1284 10.7067 14.0796 11.1874 13.8846V15.4455C11.1861 15.5483 11.2051 15.6504 11.2433 15.7457C11.2816 15.841 11.3382 15.9275 11.4099 16.0003C11.4817 16.073 11.567 16.1304 11.661 16.1692C11.755 16.2079 11.8556 16.2272 11.9571 16.2259H12.6307C12.7748 16.2259 12.9192 16.0797 12.9192 15.9336V8.95771H14.0258C14.1699 8.95771 14.2662 8.86008 14.2662 8.71394V8.2261ZM11.1877 12.4211C10.8989 12.5672 10.5141 12.6163 10.2256 12.6163C9.45595 12.6163 9.07086 12.2261 9.07086 11.3478V9.00652H11.1874L11.1877 12.4211Z" fill="#121212"/>
</svg>
